<svg width="90" height="90" viewBox="0 0 90 90" fill="none" xmlns="http://www.w3.org/2000/svg">
<rect x="0.5" y="0.5" width="89" height="89" fill="#4F4F4F"/>
<g clip-path="url(#clip0_2_5)">
<path d="M50.5 13.75H48V12.5C48 11.8062 47.4438 11.25 46.75 11.25H44.25C43.5562 11.25 43 11.8062 43 12.5V13.75H40.5C39.8062 13.75 39.2562 14.3062 39.2562 15L39.25 21.875C39.25 22.5688 39.8062 23.125 40.5 23.125H50.5C51.1938 23.125 51.75 22.5688 51.75 21.875V15C51.75 14.3062 51.1938 13.75 50.5 13.75ZM46.75 13.75H44.25V12.5H46.75V13.75Z" fill="white"/>
</g>
<g clip-path="url(#clip1_2_5)">
<path d="M24.5 57.75H22V56.5C22 55.8062 21.4438 55.25 20.75 55.25H18.25C17.5562 55.25 17 55.8062 17 56.5V57.75H14.5C13.8062 57.75 13.2562 58.3062 13.2562 59L13.25 65.875C13.25 66.5688 13.8062 67.125 14.5 67.125H24.5C25.1938 67.125 25.75 66.5688 25.75 65.875V59C25.75 58.3062 25.1938 57.75 24.5 57.75ZM20.75 57.75H18.25V56.5H20.75V57.75Z" fill="white"/>
</g>
<g clip-path="url(#clip2_2_5)">
<path d="M74.5 57.75H72V56.5C72 55.8062 71.4438 55.25 70.75 55.25H68.25C67.5562 55.25 67 55.8062 67 56.5V57.75H64.5C63.8062 57.75 63.2562 58.3062 63.2562 59L63.25 65.875C63.25 66.5688 63.8062 67.125 64.5 67.125H74.5C75.1938 67.125 75.75 66.5688 75.75 65.875V59C75.75 58.3062 75.1938 57.75 74.5 57.75ZM70.75 57.75H68.25V56.5H70.75V57.75Z" fill="white"/>
</g>
<line x1="47.433" y1="23.75" x2="66.433" y2="56.659" stroke="white"/>
<line x1="27" y1="61.5" x2="62" y2="61.5" stroke="white"/>
<line x1="23.567" y1="56.75" x2="42.567" y2="23.841" stroke="white"/>
<rect x="0.5" y="0.5" width="89" height="89" stroke="#4F4F4F"/>
<defs>
<clipPath id="clip0_2_5">
<rect width="15" height="15" fill="white" transform="translate(38 10)"/>
</clipPath>
<clipPath id="clip1_2_5">
<rect width="15" height="15" fill="white" transform="translate(12 54)"/>
</clipPath>
<clipPath id="clip2_2_5">
<rect width="15" height="15" fill="white" transform="translate(62 54)"/>
</clipPath>
</defs>
</svg>
